{
  "accessors": [
    {
      "bufferView": 2,
      "componentType": 5126,
      "count": 65532,
      "max": [
        44.099609375,
        26.233482360839844,
        14.32537841796875
      ],
      "min": [
        -23.990243911743164,
        -31.320262908935547,
        -2.3796043395996094
      ],
      "type": "VEC3"
    },
    {
      "bufferView": 2,
      "byteOffset": 786384,
      "componentType": 5126,
      "count": 65532,
      "max": [
        0.99987542629241943,
        0.99998360872268677,
        0.99999725818634033
      ],
      "min": [
        -0.99875783920288086,
        -0.99993777275085449,
        -0.99935829639434814
      ],
      "type": "VEC3"
    },
    {
      "bufferView": 1,
      "componentType": 5126,
      "count": 65532,
      "max": [
        0.99987787008285522,
        0.99987781047821045
      ],
      "min": [
        0.0001220703125,
        0.00012197031173855066
      ],
      "type": "VEC2"
    },
    {
      "bufferView": 0,
      "componentType": 5125,
      "count": 303135,
      "max": [
        65531
      ],
      "min": [
        0
      ],
      "type": "SCALAR"
    },
    {
      "bufferView": 2,
      "byteOffset": 1572768,
      "componentType": 5126,
      "count": 65533,
      "max": [
        36.733280181884766,
        0.54793453216552734,
        10.47104549407959
      ],
      "min": [
        -23.211353302001953,
        -28.772397994995117,
        -1.1963062286376953
      ],
      "type": "VEC3"
    },
    {
      "bufferView": 2,
      "byteOffset": 2359164,
      "componentType": 5126,
      "count": 65533,
      "max": [
        0.99968373775482178,
        0.99990087747573853,
        0.99999880790710449
      ],
      "min": [
        -0.99899083375930786,
        -0.99999761581420898,
        -0.94914013147354126
      ],
      "type": "VEC3"
    },
    {
      "bufferView": 1,
      "byteOffset": 524256,
      "componentType": 5126,
      "count": 65533,
      "max": [
        0.99987787008285522,
        0.99987781047821045
      ],
      "min": [
        0.0001220703125,
        0.00012197031173855066
      ],
      "type": "VEC2"
    },
    {
      "bufferView": 0,
      "byteOffset": 1212540,
      "componentType": 5125,
      "count": 264714,
      "max": [
        65532
      ],
      "min": [
        0
      ],
      "type": "SCALAR"
    },
    {
      "bufferView": 2,
      "byteOffset": 3145560,
      "componentType": 5126,
      "count": 65532,
      "max": [
        37.010639190673828,
        7.7989363670349121,
        13.955715179443359
      ],
      "min": [
        -29.304731369018555,
        -19.360324859619141,
        -2.3796043395996094
      ],
      "type": "VEC3"
    },
    {
      "bufferView": 2,
      "byteOffset": 3931944,
      "componentType": 5126,
      "count": 65532,
      "max": [
        0.99799078702926636,
        0.9997907280921936,
        0.99999356269836426
      ],
      "min": [
        -0.99992364645004272,
        -0.99971884489059448,
        -0.99959522485733032
      ],
      "type": "VEC3"
    },
    {
      "bufferView": 1,
      "byteOffset": 1048520,
      "componentType": 5126,
      "count": 65532,
      "max": [
        0.9998779296875,
        0.99987781047821045
      ],
      "min": [
        0.0001220703125,
        0.00012197031173855066
      ],
      "type": "VEC2"
    },
    {
      "bufferView": 0,
      "byteOffset": 2271396,
      "componentType": 5125,
      "count": 241176,
      "max": [
        65531
      ],
      "min": [
        0
      ],
      "type": "SCALAR"
    },
    {
      "bufferView": 2,
      "byteOffset": 4718328,
      "componentType": 5126,
      "count": 65532,
      "max": [
        28.35936164855957,
        19.04661750793457,
        12.336886405944824
      ],
      "min": [
        -23.694158554077148,
        -27.205873489379883,
        -0.390167236328125
      ],
      "type": "VEC3"
    },
    {
      "bufferView": 2,
      "byteOffset": 5504712,
      "componentType": 5126,
      "count": 65532,
      "max": [
        0.99997276067733765,
        0.99998772144317627,
        0.99999415874481201
      ],
      "min": [
        -0.99969351291656494,
        -0.99999707937240601,
        -0.99969643354415894
      ],
      "type": "VEC3"
    },
    {
      "bufferView": 1,
      "byteOffset": 1572776,
      "componentType": 5126,
      "count": 65532,
      "max": [
        0.99987787008285522,
        0.99987781047821045
      ],
      "min": [
        0.0001220703125,
        0.00012197031173855066
      ],
      "type": "VEC2"
    },
    {
      "bufferView": 0,
      "byteOffset": 3236100,
      "componentType": 5125,
      "count": 251070,
      "max": [
        65531
      ],
      "min": [
        0
      ],
      "type": "SCALAR"
    },
    {
      "bufferView": 2,
      "byteOffset": 6291096,
      "componentType": 5126,
      "count": 65532,
      "max": [
        39.311210632324219,
        18.698450088500977,
        12.341997146606445
      ],
      "min": [
        -20.231449127197266,
        -15.455940246582031,
        -2.1172809600830078
      ],
      "type": "VEC3"
    },
    {
      "bufferView": 2,
      "byteOffset": 7077480,
      "componentType": 5126,
      "count": 65532,
      "max": [
        0.99984043836593628,
        0.99998730421066284,
        0.99999880790710449
      ],
      "min": [
        -0.99980169534683228,
        -0.99999773502349854,
        -0.99928730726242065
      ],
      "type": "VEC3"
    },
    {
      "bufferView": 1,
      "byteOffset": 2097032,
      "componentType": 5126,
      "count": 65532,
      "max": [
        0.99987787008285522,
        0.99987781047821045
      ],
      "min": [
        0.0001220703125,
        0.00012197031173855066
      ],
      "type": "VEC2"
    },
    {
      "bufferView": 0,
      "byteOffset": 4240380,
      "componentType": 5125,
      "count": 253602,
      "max": [
        65531
      ],
      "min": [
        0
      ],
      "type": "SCALAR"
    },
    {
      "bufferView": 2,
      "byteOffset": 7863864,
      "componentType": 5126,
      "count": 65532,
      "max": [
        12.586089134216309,
        11.582063674926758,
        10.826603889465332
      ],
      "min": [
        -10.008231163024902,
        -3.2608282566070557,
        0.37198925018310547
      ],
      "type": "VEC3"
    },
    {
      "bufferView": 2,
      "byteOffset": 8650248,
      "componentType": 5126,
      "count": 65532,
      "max": [
        0.99991345405578613,
        0.9998481273651123,
        0.99999922513961792
      ],
      "min": [
        -0.99999308586120605,
        -0.9999922513961792,
        -0.99990910291671753
      ],
      "type": "VEC3"
    },
    {
      "bufferView": 1,
      "byteOffset": 2621288,
      "componentType": 5126,
      "count": 65532,
      "max": [
        0.99987787008285522,
        0.99987781047821045
      ],
      "min": [
        0.0001220703125,
        0.00012197031173855066
      ],
      "type": "VEC2"
    },
    {
      "bufferView": 0,
      "byteOffset": 5254788,
      "componentType": 5125,
      "count": 250377,
      "max": [
        65531
      ],
      "min": [
        0
      ],
      "type": "SCALAR"
    },
    {
      "bufferView": 2,
      "byteOffset": 9436632,
      "componentType": 5126,
      "count": 65533,
      "max": [
        30.386322021484375,
        9.4014701843261719,
        11.130767822265625
      ],
      "min": [
        -6.6035480499267578,
        -27.185884475708008,
        0.3535308837890625
      ],
      "type": "VEC3"
    },
    {
      "bufferView": 2,
      "byteOffset": 10223028,
      "componentType": 5126,
      "count": 65533,
      "max": [
        0.99990612268447876,
        0.99996078014373779,
        0.99999898672103882
      ],
      "min": [
        -0.99998849630355835,
        -0.99999415874481201,
        -0.99995160102844238
      ],
      "type": "VEC3"
    },
    {
      "bufferView": 1,
      "byteOffset": 3145544,
      "componentType": 5126,
      "count": 65533,
      "max": [
        0.99987787008285522,
        0.99987781047821045
      ],
      "min": [
        0.0001220703125,
        0.00012197031173855066
      ],
      "type": "VEC2"
    },
    {
      "bufferView": 0,
      "byteOffset": 6256296,
      "componentType": 5125,
      "count": 214503,
      "max": [
        65532
      ],
      "min": [
        0
      ],
      "type": "SCALAR"
    },
    {
      "bufferView": 2,
      "byteOffset": 11009424,
      "componentType": 5126,
      "count": 65532,
      "max": [
        30.877601623535156,
        26.944368362426758,
        12.513595581054688
      ],
      "min": [
        -23.959184646606445,
        -27.996038436889648,
        -2.3796043395996094
      ],
      "type": "VEC3"
    },
    {
      "bufferView": 2,
      "byteOffset": 11795808,
      "componentType": 5126,
      "count": 65532,
      "max": [
        0.99924594163894653,
        0.9998595118522644,
        0.9999929666519165
      ],
      "min": [
        -0.9997825026512146,
        -0.99995559453964233,
        -0.99937695264816284
      ],
      "type": "VEC3"
    },
    {
      "bufferView": 1,
      "byteOffset": 3669808,
      "componentType": 5126,
      "count": 65532,
      "max": [
        0.99987787008285522,
        0.99987781047821045
      ],
      "min": [
        0.0001220703125,
        0.00012197031173855066
      ],
      "type": "VEC2"
    },
    {
      "bufferView": 0,
      "byteOffset": 7114308,
      "componentType": 5125,
      "count": 238809,
      "max": [
        65531
      ],
      "min": [
        0
      ],
      "type": "SCALAR"
    },
    {
      "bufferView": 2,
      "byteOffset": 12582192,
      "componentType": 5126,
      "count": 65532,
      "max": [
        25.693841934204102,
        27.557701110839844,
        13.991582870483398
      ],
      "min": [
        -29.304731369018555,
        -15.478130340576172,
        -2.3796043395996094
      ],
      "type": "VEC3"
    },
    {
      "bufferView": 2,
      "byteOffset": 13368576,
      "componentType": 5126,
      "count": 65532,
      "max": [
        0.99998962879180908,
        0.99990898370742798,
        0.99996751546859741
      ],
      "min": [
        -0.99981731176376343,
        -0.99983888864517212,
        -0.99962770938873291
      ],
      "type": "VEC3"
    },
    {
      "bufferView": 1,
      "byteOffset": 4194064,
      "componentType": 5126,
      "count": 65532,
      "max": [
        0.99987787008285522,
        0.99987781047821045
      ],
      "min": [
        0.0001220703125,
        0.00012197031173855066
      ],
      "type": "VEC2"
    },
    {
      "bufferView": 0,
      "byteOffset": 8069544,
      "componentType": 5125,
      "count": 213012,
      "max": [
        65531
      ],
      "min": [
        0
      ],
      "type": "SCALAR"
    },
    {
      "bufferView": 2,
      "byteOffset": 14154960,
      "componentType": 5126,
      "count": 6393,
      "max": [
        24.102315902709961,
        24.625223159790039,
        12.548130989074707
      ],
      "min": [
        -12.472781181335449,
        -25.608285903930664,
        -2.3796043395996094
      ],
      "type": "VEC3"
    },
    {
      "bufferView": 2,
      "byteOffset": 14231676,
      "componentType": 5126,
      "count": 6393,
      "max": [
        0.98766195774078369,
        0.99977636337280273,
        0.99998700618743896
      ],
      "min": [
        -0.98032516241073608,
        -0.99792492389678955,
        -0.99935829639434814
      ],
      "type": "VEC3"
    },
    {
      "bufferView": 1,
      "byteOffset": 4718320,
      "componentType": 5126,
      "count": 6393,
      "max": [
        0.99987787008285522,
        0.99987781047821045
      ],
      "min": [
        0.0001220703125,
        0.00012197031173855066
      ],
      "type": "VEC2"
    },
    {
      "bufferView": 0,
      "byteOffset": 8921592,
      "componentType": 5125,
      "count": 18309,
      "max": [
        6392
      ],
      "min": [
        0
      ],
      "type": "SCALAR"
    },
    {
      "bufferView": 2,
      "byteOffset": 14308392,
      "componentType": 5126,
      "count": 65532,
      "max": [
        44.099609375,
        27.854789733886719,
        14.32537841796875
      ],
      "min": [
        -30.061836242675781,
        -31.388154983520508,
        -2.3796043395996094
      ],
      "type": "VEC3"
    },
    {
      "bufferView": 2,
      "byteOffset": 15094776,
      "componentType": 5126,
      "count": 65532,
      "max": [
        0.99987542629241943,
        0.99999731779098511,
        0.99999845027923584
      ],
      "min": [
        -0.99992597103118896,
        -0.99999934434890747,
        -0.99935829639434814
      ],
      "type": "VEC3"
    },
    {
      "bufferView": 1,
      "byteOffset": 4769464,
      "componentType": 5126,
      "count": 65532,
      "max": [
        0.99987727403640747,
        0.70397937297821045
      ],
      "min": [
        0.0001220703125,
        0.00012220873031765223
      ],
      "type": "VEC2"
    },
    {
      "bufferView": 0,
      "byteOffset": 8994828,
      "componentType": 5125,
      "count": 273582,
      "max": [
        65531
      ],
      "min": [
        0
      ],
      "type": "SCALAR"
    },
    {
      "bufferView": 2,
      "byteOffset": 15881160,
      "componentType": 5126,
      "count": 11604,
      "max": [
        12.938555717468262,
        15.365657806396484,
        12.172284126281738
      ],
      "min": [
        -10.293177604675293,
        -15.3184814453125,
        0.31707572937011719
      ],
      "type": "VEC3"
    },
    {
      "bufferView": 2,
      "byteOffset": 16020408,
      "componentType": 5126,
      "count": 11604,
      "max": [
        0.99977338314056396,
        0.99972236156463623,
        0.99998980760574341
      ],
      "min": [
        -0.99856120347976685,
        -0.99988555908203125,
        -0.92905420064926147
      ],
      "type": "VEC3"
    },
    {
      "bufferView": 1,
      "byteOffset": 5293720,
      "componentType": 5126,
      "count": 11604,
      "max": [
        0.99742966890335083,
        0.70495593547821045
      ],
      "min": [
        0.0001220703125,
        0.00012226833496242762
      ],
      "type": "VEC2"
    },
    {
      "bufferView": 0,
      "byteOffset": 10089156,
      "componentType": 5125,
      "count": 42405,
      "max": [
        11603
      ],
      "min": [
        0
      ],
      "type": "SCALAR"
    }
  ],
  "asset": {
    "extras": {
      "author": "matousekfoto (https://sketchfab.com/matousekfoto)",
      "license": "CC-BY-4.0 (http://creativecommons.org/licenses/by/4.0/)",
      "source": "https://sketchfab.com/3d-models/mar-saba-monastery-4bff096a20064d65b8af65ab8c51d9cf",
      "title": "Mar Saba monastery"
    },
    "generator": "Sketchfab-10.6.0",
    "version": "2.0"
  },
  "bufferViews": [
    {
      "buffer": 0,
      "byteLength": 10258776,
      "byteOffset": 0,
      "name": "floatBufferViews",
      "target": 34963
    },
    {
      "buffer": 0,
      "byteLength": 5386552,
      "byteOffset": 10258776,
      "byteStride": 8,
      "name": "floatBufferViews",
      "target": 34962
    },
    {
      "buffer": 0,
      "byteLength": 16159656,
      "byteOffset": 15645328,
      "byteStride": 12,
      "name": "floatBufferViews",
      "target": 34962
    }
  ],
  "buffers": [
    {
      "byteLength": 31804984,
      "uri": "scene.bin"
    }
  ],
  "extensionsUsed": [
    "KHR_materials_unlit"
  ],
  "images": [
    {
      "uri": "textures/Material_u1_v1_baseColor.jpeg"
    },
    {
      "uri": "textures/Material_u2_v1_baseColor.jpeg"
    }
  ],
  "materials": [
    {
      "doubleSided": true,
      "extensions": {
        "KHR_materials_unlit": {}
      },
      "name": "Material_u1_v1",
      "pbrMetallicRoughness": {
        "baseColorFactor": [
          1,
          1,
          1,
          1
        ],
        "baseColorTexture": {
          "index": 0,
          "texCoord": 0
        },
        "metallicFactor": 0,
        "roughnessFactor": 1
      }
    },
    {
      "doubleSided": true,
      "emissiveFactor": [
        0,
        0,
        0
      ],
      "extensions": {
        "KHR_materials_unlit": {}
      },
      "name": "Material_u2_v1",
      "pbrMetallicRoughness": {
        "baseColorFactor": [
          1,
          1,
          1,
          1
        ],
        "baseColorTexture": {
          "index": 1,
          "texCoord": 0
        },
        "metallicFactor": 0,
        "roughnessFactor": 1
      }
    }
  ],
  "meshes": [
    {
      "name": "meshNode_Material_u1_v1_0",
      "primitives": [
        {
          "attributes": {
            "NORMAL": 1,
            "POSITION": 0,
            "TEXCOORD_0": 2
          },
          "indices": 3,
          "material": 0,
          "mode": 4
        }
      ]
    },
    {
      "name": "meshNode_Material_u1_v1_0",
      "primitives": [
        {
          "attributes": {
            "NORMAL": 5,
            "POSITION": 4,
            "TEXCOORD_0": 6
          },
          "indices": 7,
          "material": 0,
          "mode": 4
        }
      ]
    },
    {
      "name": "meshNode_Material_u1_v1_0",
      "primitives": [
        {
          "attributes": {
            "NORMAL": 9,
            "POSITION": 8,
            "TEXCOORD_0": 10
          },
          "indices": 11,
          "material": 0,
          "mode": 4
        }
      ]
    },
    {
      "name": "meshNode_Material_u1_v1_0",
      "primitives": [
        {
          "attributes": {
            "NORMAL": 13,
            "POSITION": 12,
            "TEXCOORD_0": 14
          },
          "indices": 15,
          "material": 0,
          "mode": 4
        }
      ]
    },
    {
      "name": "meshNode_Material_u1_v1_0",
      "primitives": [
        {
          "attributes": {
            "NORMAL": 17,
            "POSITION": 16,
            "TEXCOORD_0": 18
          },
          "indices": 19,
          "material": 0,
          "mode": 4
        }
      ]
    },
    {
      "name": "meshNode_Material_u1_v1_0",
      "primitives": [
        {
          "attributes": {
            "NORMAL": 21,
            "POSITION": 20,
            "TEXCOORD_0": 22
          },
          "indices": 23,
          "material": 0,
          "mode": 4
        }
      ]
    },
    {
      "name": "meshNode_Material_u1_v1_0",
      "primitives": [
        {
          "attributes": {
            "NORMAL": 25,
            "POSITION": 24,
            "TEXCOORD_0": 26
          },
          "indices": 27,
          "material": 0,
          "mode": 4
        }
      ]
    },
    {
      "name": "meshNode_Material_u1_v1_0",
      "primitives": [
        {
          "attributes": {
            "NORMAL": 29,
            "POSITION": 28,
            "TEXCOORD_0": 30
          },
          "indices": 31,
          "material": 0,
          "mode": 4
        }
      ]
    },
    {
      "name": "meshNode_Material_u1_v1_0",
      "primitives": [
        {
          "attributes": {
            "NORMAL": 33,
            "POSITION": 32,
            "TEXCOORD_0": 34
          },
          "indices": 35,
          "material": 0,
          "mode": 4
        }
      ]
    },
    {
      "name": "meshNode_Material_u1_v1_0",
      "primitives": [
        {
          "attributes": {
            "NORMAL": 37,
            "POSITION": 36,
            "TEXCOORD_0": 38
          },
          "indices": 39,
          "material": 0,
          "mode": 4
        }
      ]
    },
    {
      "name": "meshNode_Material_u2_v1_0",
      "primitives": [
        {
          "attributes": {
            "NORMAL": 41,
            "POSITION": 40,
            "TEXCOORD_0": 42
          },
          "indices": 43,
          "material": 1,
          "mode": 4
        }
      ]
    },
    {
      "name": "meshNode_Material_u2_v1_0",
      "primitives": [
        {
          "attributes": {
            "NORMAL": 45,
            "POSITION": 44,
            "TEXCOORD_0": 46
          },
          "indices": 47,
          "material": 1,
          "mode": 4
        }
      ]
    }
  ],
  "nodes": [
    {
      "children": [
        1
      ],
      "name": "RootNode (gltf orientation matrix)",
      "rotation": [
        -0.70710678118654746,
        -0,
        -0,
        0.70710678118654757
      ]
    },
    {
      "children": [
        2
      ],
      "matrix": [
        -4,
        0,
        1.1331077372775996e-15,
        0,
        0,
        4,
        0,
        0,
        -1.1331077372775996e-15,
        0,
        -4,
        0,
        14.037939071655273,
        0,
        -11.94579029083252,
        1
      ],
      "name": "RootNode (model correction matrix)"
    },
    {
      "children": [
        3
      ],
      "matrix": [
        1,
        0,
        0,
        0,
        0,
        -1,
        0,
        0,
        0,
        0,
        -1,
        0,
        0,
        0,
        0,
        1
      ],
      "name": "marsaba.fbx"
    },
    {
      "children": [
        4
      ],
      "name": "RootNode"
    },
    {
      "children": [
        5,
        6,
        7,
        8,
        9,
        10,
        11,
        12,
        13,
        14,
        15,
        16
      ],
      "name": "meshNode"
    },
    {
      "mesh": 0,
      "name": "meshNode_Material_u1_v1_0"
    },
    {
      "mesh": 1,
      "name": "meshNode_Material_u1_v1_0"
    },
    {
      "mesh": 2,
      "name": "meshNode_Material_u1_v1_0"
    },
    {
      "mesh": 3,
      "name": "meshNode_Material_u1_v1_0"
    },
    {
      "mesh": 4,
      "name": "meshNode_Material_u1_v1_0"
    },
    {
      "mesh": 5,
      "name": "meshNode_Material_u1_v1_0"
    },
    {
      "mesh": 6,
      "name": "meshNode_Material_u1_v1_0"
    },
    {
      "mesh": 7,
      "name": "meshNode_Material_u1_v1_0"
    },
    {
      "mesh": 8,
      "name": "meshNode_Material_u1_v1_0"
    },
    {
      "mesh": 9,
      "name": "meshNode_Material_u1_v1_0"
    },
    {
      "mesh": 10,
      "name": "meshNode_Material_u2_v1_0"
    },
    {
      "mesh": 11,
      "name": "meshNode_Material_u2_v1_0"
    }
  ],
  "samplers": [
    {
      "magFilter": 9729,
      "minFilter": 9987,
      "wrapS": 10497,
      "wrapT": 10497
    }
  ],
  "scene": 0,
  "scenes": [
    {
      "name": "OSG_Scene",
      "nodes": [
        0
      ]
    }
  ],
  "textures": [
    {
      "sampler": 0,
      "source": 0
    },
    {
      "sampler": 0,
      "source": 1
    }
  ]
}

